<?xml version="1.0" encoding="utf-8"?>
<!-- Generator: Adobe Illustrator 22.1.0, SVG Export Plug-In . SVG Version: 6.00 Build 0)  -->
<svg version="1.1"
	 xmlns:cc="http://creativecommons.org/ns#" xmlns:dc="http://purl.org/dc/elements/1.1/" xmlns:rdf="http://www.w3.org/1999/02/22-rdf-syntax-ns#" xmlns:sodipodi="http://sodipodi.sourceforge.net/DTD/sodipodi-0.dtd" xmlns:svg="http://www.w3.org/2000/svg"
	 xmlns="http://www.w3.org/2000/svg" xmlns:xlink="http://www.w3.org/1999/xlink" x="0px" y="0px" width="310px" height="270px"
	 viewBox="0 0 310 270" style="enable-background:new 0 0 310 270;" xml:space="preserve">
<style type="text/css">
	.st0{fill:none;stroke:#C3C3C3;stroke-width:2;}
	.st1{fill:#0000FF;}
	.st2{fill:none;stroke:#0000FF;stroke-width:2;}
	.st3{fill:#09A44A;}
	.st4{fill:none;stroke:#FF0B0B;stroke-width:2;}
	.st5{fill:#FF0B0B;}
	.st6{font-family:Liberation Sans;font-style:italic;}
	.st7{font-size:20px;}
	.st8{fill:#000B0B;}
	.st9{font-family:Liberation Sans;}
</style>
<g>
	<circle class="st0" cx="122.9" cy="145.4" r="11.8"/>
	<circle class="st0" cx="122.9" cy="145.4" r="52.2"/>
	<path class="st0" d="M240.1,156.9c-5.8,59.5-55.9,106-116.9,106c-64.9,0-117.5-52.6-117.5-117.5S58.3,27.9,123.2,27.9
		c60.8,0,110.9,46.2,116.9,105.5"/>
</g>
<g>
	<path class="st1" d="M180.1,114.7c3.4-0.8,5.7-1.1,8.5-1.5l-5.1-8.7c-0.6,0.9-3.2,4.1-5.5,6.6c-2.5,2.7-4.9,4.9-6.6,6.2
		C173.4,116.5,176.5,115.5,180.1,114.7z"/>
	<line class="st2" x1="224.6" y1="86.6" x2="183.2" y2="110.5"/>
	<circle class="st3" cx="224.6" cy="86.6" r="3.6"/>
	<circle class="st3" cx="168.1" cy="119.2" r="3.6"/>
</g>
<g>
	<path class="st4" d="M291,119h-16.3c-4.3-17-8.3,0-8.3,0s-4,17-8.3,0c-4.3-17-8.3,0-8.3,0s-4,17-8.3,0s-8.3,0-8.3,0s-4,17-8.3,0
		s-8.3,0-8.3,0s-4,17-8.3,0s-8.3,0-8.3,0"/>
	<text transform="matrix(1 0 0 1 203.1132 152.5702)" class="st5 st6 st7">ΔE = hν</text>
	<path class="st5" d="M296.1,116.5c-3.3-1-5.5-1.9-8.1-3v10.1c0.9-0.5,4.8-2,8.1-3c3.5-1.1,6.7-1.8,8.8-2.1
		C302.9,118.3,299.6,117.6,296.1,116.5z"/>
</g>
<g>
	<circle cx="122.9" cy="145.4" r="3.6"/>
	<text transform="matrix(1 0 0 1 130.1132 168.4009)" class="st8 st6 st7">+Ze</text>
</g>
<g>
	<text transform="matrix(1 0 0 1 100.3705 129.7649)"><tspan x="0" y="0" class="st1 st6 st7">n = </tspan><tspan x="33.9" y="0" class="st1 st9 st7">1</tspan></text>
	<text transform="matrix(1 0 0 1 100.3707 89.4818)"><tspan x="0" y="0" class="st1 st6 st7">n = </tspan><tspan x="33.9" y="0" class="st1 st9 st7">2</tspan></text>
	<text transform="matrix(1 0 0 1 100.3707 23.9828)"><tspan x="0" y="0" class="st1 st6 st7">n = </tspan><tspan x="33.9" y="0" class="st1 st9 st7">3</tspan></text>
</g>
</svg>
